<?xml version="1.0" standalone="no"?><!DOCTYPE svg PUBLIC "-//W3C//DTD SVG 1.1//EN" "http://www.w3.org/Graphics/SVG/1.1/DTD/svg11.dtd"><svg t="1644376454813" class="icon" viewBox="0 0 1024 1024" version="1.1" xmlns="http://www.w3.org/2000/svg" p-id="2553" xmlns:xlink="http://www.w3.org/1999/xlink" width="200" height="200"><defs><style type="text/css"></style></defs><path d="M740.919605 0c22.38646 0 40.440056 19.497884 40.440056 44.050776v44.050775h94.600847c79.435825 0 145.150917 67.881523 148.039492 154.538788v620.321579c0 88.823695-66.437236 161.038082-148.039492 161.038082H148.039492c-81.602257 0-148.039492-72.214386-148.039492-161.038082v-613.822285c0-88.823695 66.437236-161.038082 148.039492-161.038082h94.600847V44.050776c0-24.552891 18.053597-44.050776 40.440056-44.050776s40.440056 19.497884 40.440056 44.050776v44.050775H700.479549V44.050776c0-24.552891 18.053597-44.050776 40.440056-44.050776z m-498.279266 175.480959H148.039492c-36.829337 0-67.159379 32.496474-67.159379 72.93653v613.822285c0 40.440056 30.330042 72.93653 67.159379 72.936531h727.198872c36.829337 0 67.159379-32.496474 67.159379-72.936531v-613.822285c0-40.440056-30.330042-72.93653-67.159379-72.93653h-94.600846v14.442877c0 24.552891-18.053597 44.050776-40.440057 44.050776-22.38646 0-40.440056-19.497884-40.440056-44.050776v-14.442877H322.798307v14.442877c0 24.552891-18.053597 44.050776-40.440056 44.050776s-40.440056-19.497884-40.440056-44.050776v-14.442877z m39.717912 496.834979c22.38646 0 40.440056 19.497884 40.440056 44.050776 0 24.552891-18.053597 44.050776-40.440056 44.050775H202.200282c-22.38646 0-40.440056-19.497884-40.440056-44.050775 0-24.552891 18.053597-44.050776 40.440056-44.050776h80.157969z m269.359662 0c22.38646 0 40.440056 19.497884 40.440056 44.050776 0 24.552891-18.053597 44.050776-40.440056 44.050775H471.559944c-22.38646 0-40.440056-19.497884-40.440057-44.050775 0-24.552891 18.053597-44.050776 40.440057-44.050776h80.157969z m269.359661 0c22.38646 0 40.440056 19.497884 40.440056 44.050776 0 24.552891-18.053597 44.050776-40.440056 44.050775h-80.880113c-22.38646 0-40.440056-19.497884-40.440056-44.050775 0-24.552891 18.053597-44.050776 40.440056-44.050776h80.880113zM282.358251 409.455571c22.38646 0 40.440056 19.497884 40.440056 44.050776 0 24.552891-18.053597 44.050776-40.440056 44.050776H202.200282c-22.38646 0-40.440056-19.497884-40.440056-44.050776 0-24.552891 18.053597-44.050776 40.440056-44.050776h80.157969z m269.359662 0c22.38646 0 40.440056 19.497884 40.440056 44.050776 0 24.552891-18.053597 44.050776-40.440056 44.050776H471.559944c-22.38646 0-40.440056-19.497884-40.440057-44.050776 0-24.552891 18.053597-44.050776 40.440057-44.050776h80.157969z m269.359661 0c22.38646 0 40.440056 19.497884 40.440056 44.050776 0 24.552891-18.053597 44.050776-40.440056 44.050776h-80.880113c-22.38646 0-40.440056-19.497884-40.440056-44.050776 0-24.552891 18.053597-44.050776 40.440056-44.050776h80.880113z" p-id="2554"></path></svg>