<?xml version="1.0" standalone="no"?><!DOCTYPE svg PUBLIC "-//W3C//DTD SVG 1.1//EN" "http://www.w3.org/Graphics/SVG/1.1/DTD/svg11.dtd"><svg t="1644376495385" class="icon" viewBox="0 0 1024 1024" version="1.1" xmlns="http://www.w3.org/2000/svg" p-id="3485" xmlns:xlink="http://www.w3.org/1999/xlink" width="200" height="200"><defs><style type="text/css"></style></defs><path d="M719.869 992.533c-7.3-3.228-20.835-14.391-30.094-24.795-16.434-18.476-16.834-19.925-17.041-61.665-0.11-23.512 1.932-44.058 4.553-45.672 6.486-4.015 5.975-30.218-0.69-34.33-2.966-1.835-6.83-1.049-8.554 1.766-1.739 2.801-9.714 6.665-17.717 8.596-8.003 1.918-16.752 5.078-19.428 7.037-14.323 10.46-61.362 34.055-67.888 34.055-4.14 0-7.562-2.857-7.562-6.348 0-9.686 10.487-17.993 22.712-17.993 6.072 0 13.288-4.236 16.062-9.41 2.76-5.174 9.534-10.832 15.04-12.584 13.274-4.209 9.424-14.281-5.506-14.42-15.73-0.137-18.972-18.958-4.802-27.803 5.52-3.45 10.046-9.038 10.046-12.418 0-7.396-12.764-8.169-17.18-1.021-5.063 8.196-16.902-4.623-16.902-18.297 0-7.272 8.638-21.87 21.912-37.048 12.045-13.771 21.897-27.818 21.897-31.212 0-9.949 8.28-7.12 19.014 6.526 7.728 9.797 8.845 14.806 4.995 22.009-6.857 12.805-1.628 19.87 10.294 13.88l19.18-9.63c5.326-2.677 13.95-4.871 19.18-4.871 18.268 0 16.792 11.038-3.81 28.77-22.987 19.772-24.118 22.6-10.43 26.188 14.308 3.726 11.866 8.914-12.833 27.087-14.957 11.01-20.573 17.924-17.248 21.249 3.312 3.311 8.569 2.36 16.144-2.94 14.143-9.906 28.19-10.003 42.057-0.289 12.46 8.72 14.144 16.765 3.519 16.765-4.015 0-7.313 2.553-7.313 5.699 0 3.132-3.822 9.935-8.514 15.109-6.637 7.34-8.513 18.13-8.513 49.053 0 34.634 1.38 41.05 10.956 50.612 6.016 6.016 14.101 10.956 17.965 10.956s8.362 2.18 10.018 4.857c4.58 7.423 31.584 5.823 34.606-2.056 1.462-3.795 0.027-12.005-3.174-18.241-3.836-7.452 1.739-4.03 16.296 10.003 19.042 18.366 21.332 22.602 16.447 30.426-4.374 6.995-11.245 8.982-30.052 8.692-13.412-0.22-30.357-3.049-37.642-6.292z m-290.04-125.757c-3.188-3.188-5.796-8.693-5.796-12.198 0-3.519-2.649-10.625-5.878-15.799-4.788-7.672-4.346-11.08 2.429-18.572 6.485-7.162 8.306-18.435 8.306-51.385 0-37.007-1.048-42.182-8.513-42.044-4.692 0.083-12.695 3.312-17.8 7.175-8.21 6.21-10.031 6.044-15.675-1.38-11.411-15.012-7.175-24.464 24.948-55.814 30.521-29.776 39.6-47.493 24.34-47.493-4.002 0-7.3 2.318-7.3 5.146 0 2.843-1.807 4.043-4.015 2.677-2.208-1.38-17 8.307-32.867 21.498-30.357 25.25-39.16 28.052-56.89 18.131-17.911-10.004-18.353-14.985-2.043-22.395 8.527-3.863 21.857-10.003 29.639-13.619 7.768-3.615 18.42-6.568 23.664-6.568 8.251 0 9.107-2.29 6.333-17.04-2.4-12.805-1.518-17.041 3.533-17.041 3.725 0 13.867-7.824 22.574-17.386 8.72-9.576 17.22-16.034 18.903-14.35 1.684 1.683 0.773 4.58-2.028 6.443-6.554 4.374-21.167 49.205-16.89 51.854 1.795 1.104 6.43 0 10.322-2.47 3.891-2.456 11.204-4.498 16.268-4.553 5.064-0.028 12.253-3.905 16.006-8.583 10.363-13.011 30.77-57.897 30.77-67.722 0-7.285 2.18-6.554 13.178 4.457l13.177 13.164-12.832 13.495c-7.051 7.41-14.31 19.51-16.144 26.865-3.132 12.722-2.429 13.384 13.977 13.384 9.507 0 18.628-2.18 20.284-4.857 5.147-8.32 37.255-5.657 44.334 3.643 10.873 14.323 7.727 16.93-16.337 13.605-55.373-7.672-71.324-6.982-82.749 3.546-6.03 5.561-10.956 13.081-10.956 16.71 0 3.629-3.284 7.865-7.313 9.41-4.001 1.546-7.285 5.85-7.285 9.576 0 7.465 12.46 9.328 16.682 2.484 3.118-5.036 29.68-4.498 34.91 0.718 1.959 1.973 7.437 3.587 12.17 3.587 12.17 0 16.24 17.234 7.12 30.232-4.181 5.989-7.603 14.847-7.603 19.69 0 8.831-11.48 29.584-23.099 41.727-3.918 4.098-11.287 5.34-20.173 3.394-13.688-3.008-13.991-2.622-14.253 17.869-0.387 29.845-5.878 74.124-10.06 80.858-2.718 4.415-4.898 4.388-9.354-0.055z m47.742-137.9c0-6.596 2.194-12.005 4.87-12.005 7.314 0 5.851-29.114-1.6-31.984-3.546-1.353-12.363-0.235-19.566 2.51-12.032 4.568-12.998 6.886-11.673 28.19 0.8 12.764 3.173 25.942 5.27 29.295 6.113 9.769 22.699-1.918 22.699-16.006z m387.221 76c-1.531-2.483-8.94-5.85-16.46-7.492-15.317-3.367-47.591-30.48-42.43-35.64 1.835-1.836 7.726 2.096 13.108 8.761 6.54 8.113 10.57 10.087 12.239 6.002 4.029-9.88 13.522-7.037 28.438 8.528 7.7 8.03 17.828 14.598 22.533 14.598 4.691 0 9.893 2.194 11.535 4.871 1.753 2.829-3.09 4.87-11.59 4.87-8.031 0-15.855-2.028-17.386-4.497z m89.827-2.207c0-4.347 3.367-7.907 7.493-7.907 8.776 0 16.917-5.974 39.366-28.935 17.745-18.144 21.553-15.454 7.755 5.465-10.459 15.84-34.55 35.434-38.608 31.377-1.628-1.628-5.891-0.51-9.479 2.484-5.009 4.139-6.54 3.56-6.54-2.484z m-73.972-18.02c-7.217-5.382-17.8-17.359-23.526-26.618-12.28-19.87-24.203-22.16-24.203-4.65 0 7.106-2.8 12.17-6.733 12.17-8.928 0-6.775-30.176 2.442-34.371 3.698-1.684 11.618-5.588 17.607-8.693 5.988-3.09 16.572-5.616 23.526-5.616 7.934 0 11.894-2.263 10.638-6.085-2.76-8.348-22.132-10.542-30.646-3.477-3.836 3.173-10.252 4.526-14.24 2.994-7.878-3.036-29.1 21.415-33.17 38.208-2.319 9.52-2.388 9.52-2.94-0.249-0.745-13.315-9.769-21.663-23.443-21.663-8.14 0-11.19 2.8-11.19 10.307 0 8.003 2.235 9.714 10.017 7.686 8.114-2.125 9.742-0.607 8.528 7.948-2.291 16.02-20.215 16.171-32.73 0.276-6.361-8.1-8.693-15.027-5.947-17.759 2.456-2.47 3.312-13.163 1.89-23.788-2.249-16.737-1.214-19.649 7.824-22.022 5.726-1.49 10.418-5.52 10.418-8.928 0-8.458 14.474-13.425 21.677-7.45 4.153 3.449 8.941 0.662 16.558-9.66 8.072-10.9 14.64-14.488 26.534-14.488 8.693 0 20.504-3.284 26.23-7.313 10.322-7.216 25.83-5.436 25.83 2.967 0 2.387 7.397 4.346 16.435 4.346 19.566 0 31.667 11.563 24.298 23.237-7.575 12.018-16.406 12.832-16.406 1.517 0-11.549-6.03-13.177-13.867-3.725-3.919 4.719-3.367 9.19 2.125 17.027 9.659 13.812 21.98 13.467 35.572-1.007 17.938-19.07 45.783-6.417 50.543 22.96 4.03 24.81-1.242 42.416-14.157 47.328-6.347 2.401-11.535 6.623-11.535 9.37 0 7.45 15.688 6.015 29.349-2.691 8.54-5.437 7.796-4.043-2.58 4.843-8.031 6.899-19.76 12.529-26.08 12.556-8.182 0-10.666 2.098-8.665 7.313 1.904 4.94-0.248 7.313-6.623 7.313-6.389 0-8.527-2.373-6.623-7.313 2.042-5.34-0.621-7.299-9.99-7.299-11.204 0-12.405-1.504-9.728-12.17 1.877-7.493 0.98-12.17-2.346-12.17-2.966 0-5.381 3.284-5.381 7.313 0 4.001-2.208 7.285-4.87 7.285-5.134 0-6.624-6.25-5.037-21.221 0.552-5.244-1.546-8.224-4.995-7.065-3.27 1.09-6.734 9.107-7.686 17.827-1.545 14.157 0.083 16.6 15.289 22.947 9.369 3.919 17.027 8.182 17.027 9.493 0 6.14-23.32 0.994-35.02-7.727z m69.088-19.54c0-2.91-4.926-9.492-10.942-14.598-10.308-8.748-10.46-9.686-2.443-15.923 12.378-9.631 10.446-14.35-4.677-11.453-8.872 1.684-15.15-0.124-19.138-5.519-4.32-5.837-7.438-6.582-11.356-2.732-3.947 3.891-3.381 6.996 2.11 11.55 4.14 3.421 7.507 9.713 7.507 13.963 0 8.514 23.181 29.57 32.854 29.846 3.353 0.096 6.085-2.208 6.085-5.133z m-141.157-69.625c0-3.726-3.284-8.045-7.313-9.576-4.967-1.918-7.285 0.262-7.285 6.775 0 5.27 3.284 9.59 7.299 9.59 4.001 0 7.3-3.064 7.3-6.79z m17.386 3.063c8.5-5.823 11.466-19.028 5.602-24.892-10.349-10.335-17.151-5.74-17.151 11.577 0 17.275 2.152 19.745 11.55 13.315zM184.55 575.287c-52.765-18.876-96.395-57.07-96.395-84.39 0-11.067-13.48-27.156-22.767-27.156-2.704 0-8.941 4.443-13.853 9.852-11.067 12.24-2.912 25.086 9.424 14.847 10.238-8.5 16.585-2.897 13.73 12.101-5.217 27.28-39.27 26.286-57.595-1.683-6.582-10.073-6.844-13.826-1.587-23.637 4.802-8.968 4.912-12.998 0.51-17.413-11.01-11.011-5.933-27.776 14.944-49.343 33.116-34.233 50.405-34.495 53.179-0.8 1.435 17.413 3.105 19.538 17.717 22.491 12.777 2.608 18.103 1.173 25.554-6.816 17.11-18.38 9.494-42.347-13.453-42.347-13.757 0-14.833 9.7-1.463 13.191 12.736 3.34 12.557 19.014-0.276 22.353-12.252 3.215-19.014-11.342-15.674-33.75 2.552-17.041 16.75-26.134 40.843-26.134 8.279 0 21.856-5.45 31.087-12.502 14.268-10.886 17.869-11.728 27.666-6.512 6.209 3.311 13.467 8.83 16.144 12.294 2.677 3.463 15.813 6.94 29.197 7.727 22.657 1.338 24.45 2.373 25.913 15.11 1.946 16.999-6.444 27.692-21.732 27.692-10.17 0-11.246-1.642-8.445-12.805 3.63-14.488-5.767-14.667-14.833-0.276-14.019 22.216 24.892 36.359 50.309 18.27 17.565-12.516 32.522-12.695 52.281-0.663 28.646 17.469 31.985 79.464 5.327 99.348-11.011 8.237-16.186 9.107-31.53 5.312-17.261-4.263-18.434-5.74-19.841-25.21-1.463-20.145-11.508-28.686-17.18-14.612-1.517 3.767-2.607 2.967-2.842-2.097-0.676-14.267-25.333-27.086-59.057-30.701-26.106-2.801-33.019-2.015-38.304 4.346-3.546 4.278-12.653 7.769-20.256 7.769-26.492 0-45.189 35.461-33.53 63.61 5.023 12.142 8.597 14.281 23.816 14.281 9.852 0 20.532-2.635 23.747-5.85 4.554-4.554 5.837-4.223 5.837 1.448 0 9.756 34.827 43.327 44.955 43.327 4.415 0 9.383 2.208 11.039 4.885 1.655 2.677 23.125 4.898 47.742 4.94 31.377 0.055 42.554 1.517 37.434 4.925-11.162 7.41-92.352 3.685-117.782-5.422z m112.912-101.804c0-5.41-3.243-9.742-7.3-9.742-4.056 0-7.313 4.333-7.313 9.742 0 5.409 3.257 9.741 7.313 9.741 4.057 0 7.313-4.332 7.313-9.741z m19.469 92.78c0-5.202 2.166-10.79 4.816-12.419 2.76-1.71 3.587 0.235 1.918 4.567-1.601 4.167-0.36 7.562 2.76 7.562 3.131 0 4.332 2.18 2.676 4.87-5.022 8.142-12.17 5.437-12.17-4.58z m20.808-10.032c-0.414-5.56 2.277-9.728 6.264-9.728 3.864 0 7.01-1.82 7.01-4.056 0-2.208 5.05-6.748 11.232-10.06 11.231-6.001 25.25-28.369 29.293-46.734 1.325-6.002 2.374-3.726 2.719 5.933 0.717 20.146-14.971 50.17-33.337 63.748-17.8 13.15-22.243 13.33-23.181 0.897z m-133.885-7.589c-9.99-6.554-22.353-20.118-27.472-30.15-12.695-24.836-28.342-38.703-35.572-31.46-4.016 4.002-4.07 7.259-0.152 11.964 10.583 12.75-6.996 21.94-19 9.935-4.65-4.65-4.664-10.17-0.056-25.555 5.34-17.827 7.369-19.635 22.119-19.635 8.941 0 19.07-3.394 22.519-7.547 4.94-5.961 12.004-6.872 33.447-4.347 36.676 4.305 49.094 12.695 49.094 33.157 0 17-14.833 35.738-23.87 30.136-2.76-1.697-3.726-9.576-2.14-17.51 3.008-15.013-1.959-18.573-11.963-8.569-18.213 18.214 11.55 62.3 42.085 62.3 5.45 0 11.273 2.207 12.93 4.87 1.848 3.008-5.976 4.76-20.409 4.581-16.268-0.193-28.948-3.918-41.574-12.184zM824.17 536.79c-7.133-12.528-11.149-14.57-28.7-14.598-11.218-0.014-21.567 1.876-23.002 4.195-1.449 2.331-11.866 5.712-23.181 7.52-11.3 1.793-23.637 5.85-27.403 8.968-5.506 4.568-10.142 2.125-23.361-12.308-14.709-16.033-16.53-21.07-16.682-46.058-0.097-15.44-3.312-33.53-7.134-40.236-9.659-16.903-8.969-22.491 1.6-12.915 12.764 11.535 25.072 9.976 40.899-5.189 11.88-11.383 18.724-13.494 48.942-15.095 19.318-1.02 37.2-3.822 39.74-6.237 2.552-2.4 16.585-4.374 31.184-4.374 20.973 0 29.983 2.622 42.843 12.419 18.31 13.964 19.29 18.2 8.9 38.124-4.015 7.727-8.748 23.044-10.5 34.082-1.753 11.011-7.244 26.603-12.198 34.634-4.953 8.03-10.321 18.434-11.935 23.126-4.609 13.384-20.822 10.1-30.012-6.058z m-81.065-19.897c1.794-2.897 8.362-3.974 14.599-2.414 6.237 1.573 12.694 0.648 14.35-2.043 3.767-6.098 34.965-6.457 38.69-0.441 1.518 2.442 6.569 3.698 11.232 2.801 4.692-0.897 11.246-1.794 14.585-2a6.623 6.623 0 0 0 6.113-6.458c0.014-3.34 3.477-12.653 7.672-20.698 4.194-8.017 8.83-24.699 10.293-37.034 2.553-21.457 2.07-22.63-11.314-26.452-35.352-10.128-43.548-6.223-43.327 20.615 0.124 15.247 2.014 18.807 10.68 20.049 15.413 2.194 17.413 13.646 3.946 22.463-16.668 10.929-31.253 10.142-28.204-1.517 1.325-5.05 0-10.653-2.897-12.446s-5.285-10.818-5.285-20.022c0-14.433-1.614-16.751-11.646-16.751-13.688 0-19.607 11.453-12.115 23.457 4.25 6.803 2.58 11.563-8.458 24.147-7.575 8.624-18.062 15.675-23.32 15.675-8.526 0-8.057-1.573 4.375-14.543 14.005-14.627 13.936-19.87-0.718-43.189-0.607-0.966-7.796 3.036-15.992 8.858-12.197 8.693-14.874 13.978-14.874 29.418 0 30.633 7.189 43.796 23.926 43.796 7.948 0 15.896-2.373 17.69-5.27z m-489.453 19.773c-14.074-7.271-15.55-9.383-8.514-12.17 4.692-1.849 8.514-6.292 8.514-9.852 0-11.494 11.066-13.798 19.042-3.96 15.799 19.47 34.965 22.698 59.277 9.976 28.852-15.095 34.813-30.825 38.028-100.341 2.305-49.991 3.284-55.856 5.299-32.012 1.683 19.773 4.443 28.825 8.569 27.997 6.871-1.38 8.306 6.568 1.89 10.528-2.304 1.421-5.34 16.903-6.734 34.385-2.87 35.738-18.862 62.851-41.877 70.992-7.107 2.512-16.71 6.762-21.36 9.438-12.736 7.327-42.968 4.913-62.134-4.98z m246.783-106.923c-5.616-15.813-8.266-38.47-8.266-70.688v-47.411l-13.936 2.787c-7.685 1.545-25.761 8.237-40.167 14.902-21.083 9.714-26.52 10.721-27.79 5.105-1.214-5.381-10.955-6.968-42.581-6.968-46.776 0-54.586-6.802-13.357-11.646 15.22-1.793 30.163-5.326 33.227-7.865 3.035-2.538 21.332-6.07 40.622-7.865 19.304-1.793 36.248-5.133 37.655-7.423 1.408-2.277 7.92-4.14 14.447-4.14 11.687 0 11.88-0.73 11.88-41.946 0-38.608-0.717-41.754-9.106-39.56-7.065 1.835-8.583 0.276-6.706-6.9 5.491-20.973 27.237-21.097 51.108-0.275 9.19 8.017 11.591 32.66 3.657 37.559-6.154 3.794-6.43 39.85-0.345 43.602 2.484 1.546 5.906 0.58 7.59-2.138 1.683-2.732 11.259-4.954 21.262-4.954 10.018 0 20.505-2.29 23.292-5.078 2.8-2.787 18.172-5.436 34.164-5.878 23.002-0.648 31.143 1.187 38.925 8.72 14.544 14.089 16.765 24.617 7.038 33.42-9.645 8.735-39.698 10.432-47.439 2.677-2.967-2.967-22.105-4.484-46.004-3.643l-40.925 1.422-2.677 60.85c-1.794 40.802-5.106 65.087-9.99 73.724l-7.313 12.874z m132.932-223.946c-5.712-8.003-9.217-16.448-7.796-18.766 1.435-2.29 16.13-5.588 32.675-7.313 16.544-1.739 32.867-5.464 36.29-8.307 3.394-2.828 33.819-6.443 67.597-8.044 33.765-1.6 62.548-4.76 63.941-7.023 3.947-6.375 18.407-4.885 35.572 3.67 13.302 6.65 15.4 10.073 14.13 23.126-1.242 12.832-3.767 15.592-15.454 16.93-7.7 0.87-16.351-0.772-19.235-3.656-6.872-6.872-99.003-6.996-103.239-0.138-1.738 2.801-6.789 4.65-11.232 4.112-9.107-1.104-21.484 2.898-40.484 13.067-21.774 11.66-41.008 8.872-52.765-7.644z m86.985-94.036c11.95-12.998 11.728-15.288-3.96-39.85-5.133-8.03-9.493-15.964-9.687-17.633-0.193-1.656 10.06-4.416 22.768-6.113 12.722-1.697 29.321-6.333 36.91-10.28 12.06-6.292 15.496-6.305 27.403-0.138 22.74 11.757 28.315 41.464 7.783 41.464-6.54 0-13.274 2.25-14.971 4.995a9.107 9.107 0 0 1-8.818 3.878c-5.933-1.16-37.945 14.212-42.222 20.283-1.339 1.904-7.907 6.278-14.599 9.714l-12.17 6.264z" p-id="3486"></path></svg>