<?xml version="1.0" standalone="no"?><!DOCTYPE svg PUBLIC "-//W3C//DTD SVG 1.1//EN" "http://www.w3.org/Graphics/SVG/1.1/DTD/svg11.dtd"><svg t="1644376726782" class="icon" viewBox="0 0 1035 1024" version="1.1" xmlns="http://www.w3.org/2000/svg" p-id="8862" xmlns:xlink="http://www.w3.org/1999/xlink" width="202.1484375" height="200"><defs><style type="text/css"></style></defs><path d="M796.496139 745.73913h-24.041739a33.391304 33.391304 0 0 1 0-66.782608h24.041739a173.412174 173.412174 0 0 0 0-346.601739 168.069565 168.069565 0 0 0-30.72 2.893913l-25.6 4.674782-10.685217-23.596521A254.441739 254.441739 0 0 0 243.31353 422.956522v38.511304l-38.066087-3.784348A113.307826 113.307826 0 0 0 189.887443 456.347826a111.304348 111.304348 0 0 0-7.791304 222.608696 33.391304 33.391304 0 1 1-4.897391 66.782608 178.086957 178.086957 0 0 1 1.780869-356.173913 321.001739 321.001739 0 0 1 601.043479-123.547826 239.972174 239.972174 0 1 1 17.586087 479.499131z" fill="#25CF82" p-id="8863"></path><path d="M891.99527 454.121739a22.26087 22.26087 0 0 0-1.78087-8.236522 18.031304 18.031304 0 0 0-4.674783-6.67826 23.373913 23.373913 0 0 1-2.448695-1.558261 36.507826 36.507826 0 0 0-4.897392-3.116522 37.62087 37.62087 0 0 0-5.342608-1.113044h-76.132174a22.26087 22.26087 0 0 0 0 44.52174h20.257391L592.809183 707.673043l-162.726957-101.509565-231.513043 176.306087A22.26087 22.26087 0 0 0 212.148313 823.652174a22.26087 22.26087 0 0 0 13.57913-4.674783l206.803479-157.606956 167.17913 104.180869 247.763478-256.445217v18.253913a22.26087 22.26087 0 1 0 44.52174 0v-73.015652z" fill="#25CF82" p-id="8864"></path></svg>