<?xml version="1.0" standalone="no"?><!DOCTYPE svg PUBLIC "-//W3C//DTD SVG 1.1//EN" "http://www.w3.org/Graphics/SVG/1.1/DTD/svg11.dtd"><svg t="1644376390456" class="icon" viewBox="0 0 1251 1024" version="1.1" xmlns="http://www.w3.org/2000/svg" p-id="2406" xmlns:xlink="http://www.w3.org/1999/xlink" width="244.3359375" height="200"><defs><style type="text/css"></style></defs><path d="M349.866667 568.888889v-45.511111a19.911111 19.911111 0 1 1 39.822222 0v45.511111h45.511111a19.911111 19.911111 0 1 1 0 39.822222h-45.511111v45.511111a19.911111 19.911111 0 1 1-39.822222 0v-45.511111h-45.511111a19.911111 19.911111 0 1 1 0-39.822222h45.511111zM231.936 319.089778v-29.696h-2.218667a28.444444 28.444444 0 0 1-28.444444-28.444445V199.111111a28.444444 28.444444 0 0 1 28.444444-28.444444h280.120889a28.444444 28.444444 0 0 1 28.444445 28.444444v61.838222a28.444444 28.444444 0 0 1-28.444445 28.444445h-2.218666v29.696H512a56.888889 56.888889 0 0 1 56.888889 56.888889V796.444444a56.888889 56.888889 0 0 1-56.888889 56.888889H227.555556a56.888889 56.888889 0 0 1-56.888889-56.888889V375.978667a56.888889 56.888889 0 0 1 56.888889-56.888889h4.380444zM0 0h967.111111a284.444444 284.444444 0 0 1 284.444445 284.444444v739.555556H284.444444a284.444444 284.444444 0 0 1-284.444444-284.444444V0z m56.888889 56.888889v682.666667a227.555556 227.555556 0 0 0 227.555555 227.555555h910.222223V284.444444a227.555556 227.555556 0 0 0-227.555556-227.555555H56.888889z m170.666667 410.567111v237.454222h284.444444V467.456H227.555556zM711.111111 512h341.333333a28.444444 28.444444 0 1 1 0 56.888889h-341.333333a28.444444 28.444444 0 1 1 0-56.888889z m0 227.555556h341.333333a28.444444 28.444444 0 1 1 0 56.888888h-341.333333a28.444444 28.444444 0 1 1 0-56.888888z m0-455.111112h227.555556a28.444444 28.444444 0 1 1 0 56.888889h-227.555556a28.444444 28.444444 0 1 1 0-56.888889z" p-id="2407"></path></svg>