<?xml version="1.0" standalone="no"?><!DOCTYPE svg PUBLIC "-//W3C//DTD SVG 1.1//EN" "http://www.w3.org/Graphics/SVG/1.1/DTD/svg11.dtd"><svg t="1644376519944" class="icon" viewBox="0 0 1181 1024" version="1.1" xmlns="http://www.w3.org/2000/svg" p-id="3768" xmlns:xlink="http://www.w3.org/1999/xlink" width="230.6640625" height="200"><defs><style type="text/css"></style></defs><path d="M1116.581244 533.587862l49.505947 66.086698a47.261048 47.261048 0 0 1-10.436815 66.047314 479.148255 479.148255 0 0 1-60.100299 3.820268h-669.531508s-66.953151-1.260295-403.215505-1.260294a48.245653 48.245653 0 0 1-15.753683-66.086698l338.704175-528.496666a48.600111 48.600111 0 0 1 39.069133-22.882224 54.8622 54.8622 0 0 1 41.66849 20.32225L491.553888 157.547459c10.436815 12.721099 18.234888 25.402813 28.671702 38.123912a348.156385 348.156385 0 0 1 315.073652-195.660737 343.705969 343.705969 0 0 1 346.344711 337.955875 339.531243 339.531243 0 0 1-65.062709 195.621353zM835.338626 94.020734a249.498948 249.498948 0 0 0-234.375412 162.617389 89.717222 89.717222 0 0 1-15.753683 22.882224c85.936338 114.214199 140.641001 185.460228 171.872677 223.584139 36.469775-35.445786 93.773795-99.090663 143.240358-154.976852a58.170473 58.170473 0 0 1 39.069133-15.241688 42.69248 42.69248 0 0 1 36.469775 17.762277l78.098882 101.650637a229.373618 229.373618 0 0 0 31.271059-114.214199 247.096511 247.096511 0 0 0-249.892789-244.063927zM71.560711 748.310555h827.068335a39.384206 39.384206 0 0 1 0 78.768413h-827.068335a39.384206 39.384206 0 0 1 0-78.768413z m78.768413 196.921032h630.147302a39.384206 39.384206 0 0 1 0 78.768413h-630.147302a39.384206 39.384206 0 0 1 0-78.768413z m787.684128 0a39.384206 39.384206 0 1 1-39.384206 39.384207 39.384206 39.384206 0 0 1 39.384206-39.384207z" p-id="3769"></path></svg>